<svg xmlns="http://www.w3.org/2000/svg" width="448" height="512" viewBox="0 0 448 512">
  <path id="book-solid" d="M448,336V48A48.006,48.006,0,0,0,400,0H96A96,96,0,0,0,0,96V416a96,96,0,0,0,96,96H416c17.67,0,32-14.33,32-31.1,0-11.72-6.607-21.52-16-27.1V372.44C441.8,362.8,448,350.2,448,336ZM143.1,128h192c9.7,0,16.9,7.2,16.9,16a16.047,16.047,0,0,1-16,16H143.1c-7.9,0-15.1-7.2-15.1-16S135.2,128,143.1,128Zm0,64h192c9.7,0,16.9,7.2,16.9,16a16.047,16.047,0,0,1-16,16H143.1c-7.9,0-15.1-7.2-15.1-16S135.2,192,143.1,192ZM384,448H96a32,32,0,0,1,0-64H384Z" fill="#73777b"/>
</svg>
