<svg xmlns="http://www.w3.org/2000/svg" width="512" height="448" viewBox="0 0 512 448">
  <path id="right-from-bracket-solid" d="M96,480h64a32,32,0,0,0,0-64H96a32,32,0,0,1-32-32V128A32,32,0,0,1,96,96h64a32,32,0,0,0,0-64H96A96,96,0,0,0,0,128V384A96.012,96.012,0,0,0,96,480ZM504.8,238.5l-144.1-136a24.019,24.019,0,0,0-40.51,17.456l-.092,72h-128a32.008,32.008,0,0,0-32.02,32v64a32.015,32.015,0,0,0,32.02,32h128l.092,71.1a24.019,24.019,0,0,0,40.51,17.456l144.1-136C514.4,264.4,514.4,247.6,504.8,238.5Z" transform="translate(0 -32)" fill="#73777b"/>
</svg>
