<svg xmlns="http://www.w3.org/2000/svg" width="640.002" height="512" viewBox="0 0 640.002 512">
  <path id="user-pen-solid" d="M223.1,256a128,128,0,1,0,0-256C153.3,0,96,57.31,96,128S153.3,256,223.1,256Zm51.6,48H173.3C77.61,304,0,381.7,0,477.4A34.637,34.637,0,0,0,34.66,512h286.4a40.859,40.859,0,0,1-.283-17.04l14.28-71.41a49.825,49.825,0,0,1,13.68-25.56l45.72-45.72A172.406,172.406,0,0,0,274.7,304Zm96.7,116.6a17.993,17.993,0,0,0-4.924,9.2L352.2,501.21a9.006,9.006,0,0,0,10.59,10.59l71.42-14.29a18,18,0,0,0,9.2-4.922l125.3-125.3-72.01-72.01ZM629.5,255.7l-21.1-21.11a36,36,0,0,0-50.91,0l-38.13,38.14,72.01,72.01,38.13-38.13a36.1,36.1,0,0,0,0-50.91Z" fill="#444"/>
</svg>
